<svg width="19" height="20" viewBox="0 0 19 20" fill="none" xmlns="http://www.w3.org/2000/svg">
<path d="M8.7504 0.536959C4.52598 0.881058 1.01441 3.9901 0.18816 8.12334C-0.200664 10.0746 0.0139991 12.0258 0.82405 13.8799C1.72726 15.9445 3.52962 17.75 5.61145 18.669C8.8152 20.0859 12.4402 19.6729 15.247 17.5679C15.9841 17.0133 16.8631 16.0822 17.3896 15.3008C19.5322 12.0987 19.5322 7.92902 17.3936 4.73497C17.0129 4.16417 16.7294 3.82412 16.1664 3.26546C15.2187 2.32627 14.2425 1.68261 13.0315 1.19682C12.1081 0.824383 11.1765 0.609825 10.1477 0.532909C9.5402 0.488379 9.34173 0.488379 8.7504 0.536959ZM9.89662 5.79156C10.087 5.88872 10.2085 6.01826 10.2895 6.20853C10.3421 6.33807 10.3502 6.6093 10.3502 7.98975V9.62118L11.4681 10.7344C12.0797 11.3457 12.6265 11.9206 12.6791 12.0096C12.8898 12.374 12.8412 12.7424 12.5374 13.0419C12.2377 13.3456 11.8691 13.3941 11.5046 13.1836C11.2616 13.0419 8.78685 10.5442 8.70989 10.362C8.61674 10.1353 8.61674 6.43523 8.70989 6.20853C8.90431 5.75108 9.44299 5.56081 9.89662 5.79156Z" fill="white"/>
</svg>
