<svg width="20" height="20" viewBox="0 0 20 20" fill="none" xmlns="http://www.w3.org/2000/svg">
<circle cx="10" cy="10" r="10" fill="white"/>
<path d="M5.87507 15.3381V4.83813H10.7651C11.9851 4.83813 12.9351 5.07313 13.6151 5.54313C14.2951 6.01313 14.6351 6.68313 14.6351 7.55313C14.6351 8.41313 14.3151 9.08313 13.6751 9.56313C13.0351 10.0331 12.1851 10.2681 11.1251 10.2681L11.4101 9.63813C12.5901 9.63813 13.5051 9.87313 14.1551 10.3431C14.8051 10.8131 15.1301 11.4931 15.1301 12.3831C15.1301 13.3031 14.7801 14.0281 14.0801 14.5581C13.3901 15.0781 12.3801 15.3381 11.0501 15.3381H5.87507ZM8.29007 13.5381H10.9601C11.5201 13.5381 11.9451 13.4281 12.2351 13.2081C12.5251 12.9881 12.6701 12.6481 12.6701 12.1881C12.6701 11.7481 12.5251 11.4231 12.2351 11.2131C11.9451 10.9931 11.5201 10.8831 10.9601 10.8831H8.29007V13.5381ZM8.29007 9.18813H10.5551C11.0851 9.18813 11.4851 9.08313 11.7551 8.87313C12.0251 8.65313 12.1601 8.33313 12.1601 7.91313C12.1601 7.49313 12.0251 7.17813 11.7551 6.96813C11.4851 6.74813 11.0851 6.63813 10.5551 6.63813H8.29007V9.18813Z" fill="#A6101D"/>
</svg>
