<svg width="14" height="18" viewBox="0 0 14 18" fill="none" xmlns="http://www.w3.org/2000/svg">
<path d="M5.96084 0.0607872C3.66232 0.428627 1.67574 1.95072 0.678342 4.10278C-0.339575 6.29712 -0.208231 8.96078 1.04775 11.5399C2.04925 13.6031 3.59254 15.4973 5.653 17.197C6.47801 17.8735 6.64219 17.9792 6.93771 17.9961C7.26607 18.0172 7.37279 17.9665 7.96384 17.5098C10.5784 15.4762 12.6389 12.7702 13.4762 10.2588C13.8907 9.01997 14.0672 7.75156 13.9769 6.65228C13.821 4.79618 13.0986 3.23604 11.7933 1.95917C10.7426 0.927534 9.45377 0.280645 8.00488 0.0565605C7.50003 -0.0195446 6.45748 -0.0195446 5.96084 0.0607872ZM7.89406 3.7138C8.65339 3.93366 9.23623 4.32687 9.71236 4.93147C9.97915 5.26971 10.2788 5.87009 10.3855 6.27176C10.4881 6.66073 10.5127 7.47674 10.4306 7.88263C10.1639 9.24829 9.16646 10.3307 7.8407 10.6943C7.381 10.8211 6.61756 10.8211 6.15786 10.6943C4.83621 10.3349 3.83471 9.25251 3.56791 7.89955C3.51455 7.62895 3.50635 7.42601 3.52276 7.03703C3.5515 6.43242 3.61717 6.15337 3.85933 5.6291C4.36008 4.56363 5.2877 3.8491 6.45748 3.62924C6.77764 3.56582 7.55749 3.61233 7.89406 3.7138Z" fill="white"/>
</svg>
