<svg width="17" height="18" viewBox="0 0 17 18" fill="none" xmlns="http://www.w3.org/2000/svg">
<path d="M3.3241 0.0358524C3.19373 0.0794296 3.23833 0.0467472 1.94836 0.914648C0.757884 1.71719 0.514299 1.94596 0.256991 2.5052C-0.0483473 3.15885 -0.0757935 3.67814 0.143776 4.57872C0.78533 7.22237 2.04442 9.75708 3.7701 11.8887C4.19552 12.4153 5.22818 13.5156 5.71535 13.955C7.77038 15.8251 10.1651 17.1615 12.6832 17.8478C13.5306 18.0802 14.0212 18.0512 14.6388 17.728C15.1706 17.4556 15.3798 17.2014 16.1723 15.8832C16.5326 15.2841 16.8619 14.7212 16.9031 14.634C17.1192 14.1874 16.9614 13.5918 16.5532 13.3304C16.4948 13.2904 15.572 12.9091 14.505 12.4843C12.4328 11.6599 12.3127 11.6236 12.0177 11.7326C11.9422 11.7616 11.5545 12.0049 11.16 12.2736C10.762 12.546 10.3846 12.7893 10.3194 12.8183C10.1307 12.8982 9.78424 12.8801 9.59898 12.7784C8.97458 12.4407 7.80469 11.4602 6.98816 10.5996C6.19565 9.76434 5.23847 8.48246 4.93656 7.8506C4.8405 7.64361 4.81305 7.35673 4.87481 7.14611C4.90225 7.05533 5.13555 6.63046 5.39972 6.20195C5.66045 5.77708 5.89375 5.37036 5.91776 5.29774C6.02755 4.97454 6.01382 4.9237 5.22132 2.68677C4.81648 1.53562 4.44939 0.540615 4.41508 0.478882C4.19552 0.104849 3.7255 -0.0839825 3.3241 0.0358524Z" fill="white"/>
</svg>
