<svg width="254" height="26" viewBox="0 0 254 26" fill="none" xmlns="http://www.w3.org/2000/svg">
<path d="M0.0880001 22V5.2H7.912C9.864 5.2 11.384 5.576 12.472 6.328C13.56 7.08 14.104 8.152 14.104 9.544C14.104 10.92 13.592 11.992 12.568 12.76C11.544 13.512 10.184 13.888 8.488 13.888L8.944 12.88C10.832 12.88 12.296 13.256 13.336 14.008C14.376 14.76 14.896 15.848 14.896 17.272C14.896 18.744 14.336 19.904 13.216 20.752C12.112 21.584 10.496 22 8.368 22H0.0880001ZM3.952 19.12H8.224C9.12 19.12 9.8 18.944 10.264 18.592C10.728 18.24 10.96 17.696 10.96 16.96C10.96 16.256 10.728 15.736 10.264 15.4C9.8 15.048 9.12 14.872 8.224 14.872H3.952V19.12ZM3.952 12.16H7.576C8.424 12.16 9.064 11.992 9.496 11.656C9.928 11.304 10.144 10.792 10.144 10.12C10.144 9.448 9.928 8.944 9.496 8.608C9.064 8.256 8.424 8.08 7.576 8.08H3.952V12.16ZM76.7273 22.288C75.4313 22.288 74.2233 22.08 73.1033 21.664C71.9993 21.232 71.0393 20.624 70.2233 19.84C69.4073 19.056 68.7673 18.136 68.3033 17.08C67.8553 16.024 67.6313 14.864 67.6313 13.6C67.6313 12.336 67.8553 11.176 68.3033 10.12C68.7673 9.064 69.4073 8.144 70.2233 7.36C71.0553 6.576 72.0233 5.976 73.1273 5.56C74.2313 5.128 75.4393 4.912 76.7513 4.912C78.2073 4.912 79.5193 5.168 80.6873 5.68C81.8713 6.176 82.8633 6.912 83.6633 7.888L81.1673 10.192C80.5913 9.536 79.9513 9.048 79.2473 8.728C78.5433 8.392 77.7753 8.224 76.9433 8.224C76.1593 8.224 75.4393 8.352 74.7833 8.608C74.1273 8.864 73.5593 9.232 73.0793 9.712C72.5993 10.192 72.2233 10.76 71.9513 11.416C71.6953 12.072 71.5673 12.8 71.5673 13.6C71.5673 14.4 71.6953 15.128 71.9513 15.784C72.2233 16.44 72.5993 17.008 73.0793 17.488C73.5593 17.968 74.1273 18.336 74.7833 18.592C75.4393 18.848 76.1593 18.976 76.9433 18.976C77.7753 18.976 78.5433 18.816 79.2473 18.496C79.9513 18.16 80.5913 17.656 81.1673 16.984L83.6633 19.288C82.8633 20.264 81.8713 21.008 80.6873 21.52C79.5193 22.032 78.1993 22.288 76.7273 22.288ZM167.476 20.944C165.3 20.944 163.452 20.656 161.932 20.08C160.428 19.504 159.284 18.672 158.5 17.584C157.716 16.48 157.324 15.136 157.324 13.552C157.324 11.968 157.716 10.632 158.5 9.544C159.284 8.44 160.428 7.6 161.932 7.024C163.452 6.448 165.3 6.16 167.476 6.16C167.508 6.16 167.596 6.16 167.74 6.16C167.9 6.16 168.052 6.16 168.196 6.16C168.356 6.16 168.444 6.16 168.46 6.16C170.62 6.16 172.444 6.448 173.932 7.024C175.436 7.6 176.572 8.44 177.34 9.544C178.108 10.648 178.492 11.984 178.492 13.552C178.492 15.104 178.108 16.44 177.34 17.56C176.588 18.664 175.476 19.504 174.004 20.08C172.548 20.656 170.764 20.944 168.652 20.944C168.604 20.944 168.492 20.944 168.316 20.944C168.14 20.944 167.964 20.944 167.788 20.944C167.628 20.944 167.524 20.944 167.476 20.944ZM167.836 17.944C167.884 17.944 167.948 17.944 168.028 17.944C168.108 17.944 168.164 17.944 168.196 17.944C169.668 17.944 170.884 17.784 171.844 17.464C172.82 17.128 173.548 16.64 174.028 16C174.508 15.344 174.748 14.52 174.748 13.528C174.748 12.536 174.5 11.72 174.004 11.08C173.508 10.44 172.78 9.968 171.82 9.664C170.876 9.344 169.684 9.184 168.244 9.184C168.212 9.184 168.148 9.184 168.052 9.184C167.972 9.184 167.9 9.184 167.836 9.184C166.316 9.184 165.06 9.336 164.068 9.64C163.076 9.944 162.332 10.424 161.836 11.08C161.34 11.72 161.092 12.544 161.092 13.552C161.092 14.56 161.356 15.392 161.884 16.048C162.412 16.688 163.172 17.168 164.164 17.488C165.172 17.792 166.396 17.944 167.836 17.944ZM166.132 22.744V4.48H169.708V22.744H166.132Z" fill="#A6101D"/>
<path d="M21.5468 11.968H29.6348V14.992H21.5468V11.968ZM21.8348 18.88H30.9788V22H17.9708V5.2H30.6668V8.32H21.8348V18.88ZM45.6393 5.2H49.5273V22H45.6393V5.2ZM38.0073 22H34.1193V5.2H38.0073V22ZM45.9273 15.112H37.7193V11.824H45.9273V15.112ZM57.3604 22V7.48L58.2484 8.368H52.0084V5.2H66.5764V8.368H60.3364L61.2004 7.48V22H57.3604ZM89.6573 22V7.48L90.5453 8.368H84.3053V5.2H98.8733V8.368H92.6333L93.4973 7.48V22H89.6573ZM101.315 22V5.2H108.587C110.091 5.2 111.387 5.448 112.475 5.944C113.563 6.424 114.403 7.12 114.995 8.032C115.587 8.944 115.883 10.032 115.883 11.296C115.883 12.544 115.587 13.624 114.995 14.536C114.403 15.448 113.563 16.152 112.475 16.648C111.387 17.128 110.091 17.368 108.587 17.368H103.475L105.203 15.616V22H101.315ZM105.203 16.048L103.475 14.2H108.371C109.571 14.2 110.467 13.944 111.059 13.432C111.651 12.92 111.947 12.208 111.947 11.296C111.947 10.368 111.651 9.648 111.059 9.136C110.467 8.624 109.571 8.368 108.371 8.368H103.475L105.203 6.52V16.048ZM126.722 22.288C125.394 22.288 124.162 22.072 123.026 21.64C121.906 21.208 120.93 20.6 120.098 19.816C119.282 19.032 118.642 18.112 118.178 17.056C117.73 16 117.506 14.848 117.506 13.6C117.506 12.352 117.73 11.2 118.178 10.144C118.642 9.088 119.29 8.168 120.122 7.384C120.954 6.6 121.93 5.992 123.05 5.56C124.17 5.128 125.386 4.912 126.698 4.912C128.026 4.912 129.242 5.128 130.346 5.56C131.466 5.992 132.434 6.6 133.25 7.384C134.082 8.168 134.73 9.088 135.194 10.144C135.658 11.184 135.89 12.336 135.89 13.6C135.89 14.848 135.658 16.008 135.194 17.08C134.73 18.136 134.082 19.056 133.25 19.84C132.434 20.608 131.466 21.208 130.346 21.64C129.242 22.072 128.034 22.288 126.722 22.288ZM126.698 18.976C127.45 18.976 128.138 18.848 128.762 18.592C129.402 18.336 129.962 17.968 130.442 17.488C130.922 17.008 131.29 16.44 131.546 15.784C131.818 15.128 131.954 14.4 131.954 13.6C131.954 12.8 131.818 12.072 131.546 11.416C131.29 10.76 130.922 10.192 130.442 9.712C129.978 9.232 129.426 8.864 128.786 8.608C128.146 8.352 127.45 8.224 126.698 8.224C125.946 8.224 125.25 8.352 124.61 8.608C123.986 8.864 123.434 9.232 122.954 9.712C122.474 10.192 122.098 10.76 121.826 11.416C121.57 12.072 121.442 12.8 121.442 13.6C121.442 14.384 121.57 15.112 121.826 15.784C122.098 16.44 122.466 17.008 122.93 17.488C123.41 17.968 123.97 18.336 124.61 18.592C125.25 18.848 125.946 18.976 126.698 18.976ZM138.885 22V5.2H142.749V16.144L150.765 5.2H154.413V22H150.573V11.08L142.557 22H138.885ZM146.637 4.12C145.037 4.12 143.861 3.8 143.109 3.16C142.373 2.52 141.997 1.616 141.981 0.447999H144.645C144.661 1.024 144.829 1.464 145.149 1.768C145.485 2.056 145.981 2.2 146.637 2.2C147.277 2.2 147.765 2.056 148.101 1.768C148.437 1.464 148.613 1.024 148.629 0.447999H151.293C151.277 1.616 150.893 2.52 150.141 3.16C149.389 3.8 148.221 4.12 146.637 4.12ZM179.27 22L186.758 5.2H190.598L198.11 22H194.03L187.886 7.168H189.422L183.254 22H179.27ZM183.014 18.4L184.046 15.448H192.686L193.742 18.4H183.014ZM208.048 22.288C206.752 22.288 205.544 22.08 204.424 21.664C203.32 21.232 202.36 20.624 201.544 19.84C200.728 19.056 200.088 18.136 199.624 17.08C199.176 16.024 198.952 14.864 198.952 13.6C198.952 12.336 199.176 11.176 199.624 10.12C200.088 9.064 200.728 8.144 201.544 7.36C202.376 6.576 203.344 5.976 204.448 5.56C205.552 5.128 206.76 4.912 208.072 4.912C209.528 4.912 210.84 5.168 212.008 5.68C213.192 6.176 214.184 6.912 214.984 7.888L212.488 10.192C211.912 9.536 211.272 9.048 210.568 8.728C209.864 8.392 209.096 8.224 208.264 8.224C207.48 8.224 206.76 8.352 206.104 8.608C205.448 8.864 204.88 9.232 204.4 9.712C203.92 10.192 203.544 10.76 203.272 11.416C203.016 12.072 202.888 12.8 202.888 13.6C202.888 14.4 203.016 15.128 203.272 15.784C203.544 16.44 203.92 17.008 204.4 17.488C204.88 17.968 205.448 18.336 206.104 18.592C206.76 18.848 207.48 18.976 208.264 18.976C209.096 18.976 209.864 18.816 210.568 18.496C211.272 18.16 211.912 17.656 212.488 16.984L214.984 19.288C214.184 20.264 213.192 21.008 212.008 21.52C210.84 22.032 209.52 22.288 208.048 22.288ZM215.317 22L222.805 5.2H226.645L234.157 22H230.077L223.933 7.168H225.469L219.301 22H215.317ZM219.061 18.4L220.093 15.448H228.733L229.789 18.4H219.061ZM247.615 20.272V8.368H241.855L241.783 10.816C241.735 11.856 241.663 12.84 241.567 13.768C241.487 14.696 241.359 15.544 241.183 16.312C241.007 17.064 240.775 17.704 240.487 18.232C240.215 18.76 239.871 19.136 239.455 19.36L235.303 18.832C235.879 18.848 236.351 18.648 236.719 18.232C237.103 17.816 237.407 17.232 237.631 16.48C237.855 15.712 238.015 14.816 238.111 13.792C238.223 12.768 238.303 11.656 238.351 10.456L238.543 5.2H251.455V20.272H247.615ZM234.751 25.48L234.775 18.832H253.807V25.48H250.207V22H238.351V25.48H234.751Z" fill="black"/>
</svg>
