<svg width="30" height="30" viewBox="0 0 30 30" fill="none" xmlns="http://www.w3.org/2000/svg">
<path d="M15 4C21.0753 4 26 8.9247 26 15C26 21.0753 21.0753 26 15 26C13.056 26.0033 11.1463 25.4889 9.46701 24.5095L4.00442 26L5.49162 20.5352C4.51147 18.8554 3.99661 16.9448 4.00002 15C4.00002 8.9247 8.92471 4 15 4ZM11.2512 9.83L11.0312 9.8388C10.889 9.8486 10.75 9.88596 10.622 9.9488C10.5027 10.0165 10.3938 10.1009 10.2986 10.1996C10.1666 10.3239 10.0918 10.4317 10.0115 10.5362C9.60465 11.0652 9.38558 11.7146 9.38891 12.382C9.39111 12.921 9.53191 13.4457 9.75191 13.9363C10.2018 14.9285 10.9421 15.979 11.9189 16.9525C12.1543 17.1868 12.3853 17.4222 12.6339 17.6411C13.8477 18.7096 15.294 19.4803 16.8579 19.8917L17.4827 19.9874C17.6862 19.9984 17.8897 19.983 18.0943 19.9731C18.4146 19.9562 18.7273 19.8695 19.0106 19.719C19.1545 19.6446 19.2951 19.5638 19.4319 19.477C19.4319 19.477 19.4785 19.4455 19.5694 19.378C19.7179 19.268 19.8092 19.1899 19.9324 19.0612C20.0248 18.9659 20.1018 18.8551 20.1634 18.729C20.2492 18.5497 20.335 18.2076 20.3702 17.9227C20.3966 17.7049 20.3889 17.5861 20.3856 17.5124C20.3812 17.3947 20.2833 17.2726 20.1766 17.2209L19.5364 16.9338C19.5364 16.9338 18.5794 16.5169 17.9942 16.2507C17.9329 16.224 17.8673 16.2087 17.8006 16.2056C17.7253 16.1977 17.6493 16.2061 17.5775 16.2302C17.5058 16.2543 17.4401 16.2936 17.3848 16.3453C17.3793 16.3431 17.3056 16.4058 16.5103 17.3694C16.4647 17.4307 16.4018 17.4771 16.3297 17.5026C16.2576 17.528 16.1796 17.5314 16.1055 17.5124C16.0338 17.4933 15.9636 17.469 15.8954 17.4398C15.759 17.3826 15.7117 17.3606 15.6182 17.321C14.9867 17.0459 14.4021 16.6736 13.8857 16.2177C13.7471 16.0967 13.6184 15.9647 13.4864 15.8371C13.0537 15.4226 12.6765 14.9538 12.3644 14.4423L12.2995 14.3378C12.2536 14.2672 12.216 14.1915 12.1873 14.1123C12.1455 13.9506 12.2544 13.8208 12.2544 13.8208C12.2544 13.8208 12.5217 13.5282 12.646 13.3698C12.767 13.2158 12.8693 13.0662 12.9353 12.9595C13.0651 12.7505 13.1058 12.536 13.0376 12.3699C12.7296 11.6175 12.4113 10.8691 12.0828 10.1248C12.0179 9.9774 11.8254 9.8718 11.6505 9.8509C11.5911 9.84356 11.5317 9.8377 11.4723 9.8333C11.3246 9.82482 11.1765 9.82629 11.029 9.8377L11.2512 9.83Z" fill="black"/>
</svg>
